<svg class="animated" id="freepik_stories-checking-boxes" xmlns="http://www.w3.org/2000/svg" xmlns:xlink="http://www.w3.org/1999/xlink" viewBox="0 0 500 500" version="1.1" xmlns:svgjs="http://svgjs.com/svgjs"><style>svg#freepik_stories-checking-boxes:not(.animated) .animable {opacity: 0;}svg#freepik_stories-checking-boxes.animated #freepik--boxes-2--inject-12 {animation: 2.7s 1 forwards cubic-bezier(.36,-0.01,.5,1.38) slideLeft;animation-delay: 0s;}svg#freepik_stories-checking-boxes.animated #freepik--boxes-1--inject-12 {animation: 1s 1 forwards cubic-bezier(.36,-0.01,.5,1.38) slideDown;animation-delay: 0s;}            @keyframes slideLeft {                0% {                    opacity: 0;                    transform: translateX(-30px);                }                100% {                    opacity: 1;                    transform: translateX(0);                }            }                    @keyframes slideDown {                0% {                    opacity: 0;                    transform: translateY(-30px);                }                100% {                    opacity: 1;                    transform: translateY(0);                }            }        </style><g id="freepik--background-simple--inject-12" class="animable" style="transform-origin: 250.297px 257.414px;"><path d="M167.19,71.92S91.42,110.52,53.63,170,18.83,306,64.75,362.8s133.69,49.34,207.18,85.32,154.57,28.57,189.32-47.66S443.6,295.74,434.6,207.52,346.07-9.88,167.19,71.92Z" style="fill: rgb(95, 206, 214); transform-origin: 250.297px 257.414px;" id="ell3acfg5g5ds" class="animable"></path><g id="elceezmo6p9ko"><path d="M167.19,71.92S91.42,110.52,53.63,170,18.83,306,64.75,362.8s133.69,49.34,207.18,85.32,154.57,28.57,189.32-47.66S443.6,295.74,434.6,207.52,346.07-9.88,167.19,71.92Z" style="fill: rgb(255, 255, 255); opacity: 0.7; transform-origin: 250.297px 257.414px;" class="animable"></path></g></g><g id="freepik--boxes-2--inject-12" class="animable animator-active" style="transform-origin: 249px 247.84px;"><rect x="85.17" y="123" width="85.88" height="77.99" style="fill: rgb(95, 206, 214); transform-origin: 128.11px 161.995px;" id="el1onpmd808vs" class="animable"></rect><g style="clip-path: url(&quot;#freepik--clip-path--inject-12&quot;); transform-origin: 128.11px 161.995px;" id="el6ky31s9vqua" class="animable"><g id="elbyp2g5hgoy"><rect x="85.17" y="123" width="85.88" height="77.99" style="opacity: 0.37; transform-origin: 128.11px 161.995px;" class="animable"></rect></g></g><rect x="85.17" y="123" width="61.2" height="77.99" style="fill: rgb(95, 206, 214); transform-origin: 115.77px 161.995px;" id="elpptlnsprw9" class="animable"></rect><rect x="108.83" y="123" width="13.15" height="21.77" style="fill: rgb(255, 255, 255); transform-origin: 115.405px 133.885px;" id="elzm9hjmcxe8" class="animable"></rect><rect x="125.34" y="151.13" width="15.24" height="7.78" style="fill: rgb(255, 255, 255); transform-origin: 132.96px 155.02px;" id="eljn1h1v5c11s" class="animable"></rect><g id="elev3t7c9vcwi"><rect x="116.51" y="176.75" width="16.18" height="9.64" style="fill: rgb(255, 255, 255); transform-origin: 124.6px 181.57px; transform: rotate(13.9deg);" class="animable"></rect></g><rect x="149.17" y="123" width="85.88" height="77.99" style="fill: rgb(95, 206, 214); transform-origin: 192.11px 161.995px;" id="elxizpwk8rj7p" class="animable"></rect><g style="clip-path: url(&quot;#freepik--clip-path-2--inject-12&quot;); transform-origin: 192.11px 161.995px;" id="elg4exeew7nk6" class="animable"><g id="ell2uc890hc4"><rect x="149.17" y="123" width="85.88" height="77.99" style="opacity: 0.37; transform-origin: 192.11px 161.995px;" class="animable"></rect></g></g><rect x="149.17" y="123" width="61.2" height="77.99" style="fill: rgb(95, 206, 214); transform-origin: 179.77px 161.995px;" id="elxz6cdakg3vg" class="animable"></rect><rect x="172.83" y="123" width="13.15" height="21.77" style="fill: rgb(255, 255, 255); transform-origin: 179.405px 133.885px;" id="el5qejd6pu7qh" class="animable"></rect><rect x="189.34" y="151.13" width="15.24" height="7.78" style="fill: rgb(255, 255, 255); transform-origin: 196.96px 155.02px;" id="elheo4y5ysf6l" class="animable"></rect><g id="eljggbn4lqs8m"><rect x="180.51" y="176.75" width="16.18" height="9.64" style="fill: rgb(255, 255, 255); transform-origin: 188.6px 181.57px; transform: rotate(13.9deg);" class="animable"></rect></g><rect x="213.17" y="123" width="85.88" height="77.99" style="fill: rgb(95, 206, 214); transform-origin: 256.11px 161.995px;" id="el0735qy8b9b5g" class="animable"></rect><g style="clip-path: url(&quot;#freepik--clip-path-3--inject-12&quot;); transform-origin: 256.11px 161.995px;" id="el6t3ft51lctb" class="animable"><g id="elgwvqh5sp67"><rect x="213.17" y="123" width="85.88" height="77.99" style="opacity: 0.37; transform-origin: 256.11px 161.995px;" class="animable"></rect></g></g><rect x="213.17" y="123" width="61.2" height="77.99" style="fill: rgb(95, 206, 214); transform-origin: 243.77px 161.995px;" id="elwrdtv50c4p" class="animable"></rect><rect x="236.83" y="123" width="13.15" height="21.77" style="fill: rgb(255, 255, 255); transform-origin: 243.405px 133.885px;" id="elyx6h4y76vx" class="animable"></rect><rect x="253.34" y="151.13" width="15.24" height="7.78" style="fill: rgb(255, 255, 255); transform-origin: 260.96px 155.02px;" id="elscfi5u71tvh" class="animable"></rect><g id="eliei6cbel7sf"><rect x="244.51" y="176.75" width="16.18" height="9.64" style="fill: rgb(255, 255, 255); transform-origin: 252.6px 181.57px; transform: rotate(13.9deg);" class="animable"></rect></g><rect x="277.17" y="123" width="85.88" height="77.99" style="fill: rgb(95, 206, 214); transform-origin: 320.11px 161.995px;" id="el9620gkjis14" class="animable"></rect><g style="clip-path: url(&quot;#freepik--clip-path-4--inject-12&quot;); transform-origin: 320.11px 161.995px;" id="el51yaqns4fgs" class="animable"><g id="elvqjbs4igufj"><rect x="277.17" y="123" width="85.88" height="77.99" style="opacity: 0.37; transform-origin: 320.11px 161.995px;" class="animable"></rect></g></g><rect x="277.17" y="123" width="61.2" height="77.99" style="fill: rgb(95, 206, 214); transform-origin: 307.77px 161.995px;" id="elfi5lem9xmj" class="animable"></rect><rect x="300.83" y="123" width="13.15" height="21.77" style="fill: rgb(255, 255, 255); transform-origin: 307.405px 133.885px;" id="eldka54epqmn9" class="animable"></rect><rect x="317.34" y="151.13" width="15.24" height="7.78" style="fill: rgb(255, 255, 255); transform-origin: 324.96px 155.02px;" id="elhgpzichx6yf" class="animable"></rect><g id="elyj1hdd4rk4"><rect x="308.51" y="176.75" width="16.18" height="9.64" style="fill: rgb(255, 255, 255); transform-origin: 316.6px 181.57px; transform: rotate(13.9deg);" class="animable"></rect></g><rect x="85.17" y="230" width="85.88" height="77.99" style="fill: rgb(95, 206, 214); transform-origin: 128.11px 268.995px;" id="eltkilb0adt18" class="animable"></rect><g style="clip-path: url(&quot;#freepik--clip-path-5--inject-12&quot;); transform-origin: 128.11px 268.995px;" id="elj91b61i4f" class="animable"><g id="el9qe90anpxtc"><rect x="85.17" y="230" width="85.88" height="77.99" style="opacity: 0.37; transform-origin: 128.11px 268.995px;" class="animable"></rect></g></g><rect x="85.17" y="230" width="61.2" height="77.99" style="fill: rgb(95, 206, 214); transform-origin: 115.77px 268.995px;" id="el48ltmu76b" class="animable"></rect><rect x="108.83" y="230" width="13.15" height="21.77" style="fill: rgb(255, 255, 255); transform-origin: 115.405px 240.885px;" id="elb6vrbj7h2cr" class="animable"></rect><rect x="125.34" y="258.13" width="15.24" height="7.78" style="fill: rgb(255, 255, 255); transform-origin: 132.96px 262.02px;" id="eltksz5pk1snr" class="animable"></rect><g id="el4o6ol7t58ze"><rect x="116.51" y="283.75" width="16.18" height="9.64" style="fill: rgb(255, 255, 255); transform-origin: 124.6px 288.57px; transform: rotate(13.9deg);" class="animable"></rect></g><rect x="149.17" y="230" width="85.88" height="77.99" style="fill: rgb(95, 206, 214); transform-origin: 192.11px 268.995px;" id="elt2l5h3opoto" class="animable"></rect><g style="clip-path: url(&quot;#freepik--clip-path-6--inject-12&quot;); transform-origin: 192.11px 268.995px;" id="elrb4dw526gt" class="animable"><g id="elqq50q4x6eh"><rect x="149.17" y="230" width="85.88" height="77.99" style="opacity: 0.37; transform-origin: 192.11px 268.995px;" class="animable"></rect></g></g><rect x="149.17" y="230" width="61.2" height="77.99" style="fill: rgb(95, 206, 214); transform-origin: 179.77px 268.995px;" id="el1wepa784la1" class="animable"></rect><rect x="172.83" y="230" width="13.15" height="21.77" style="fill: rgb(255, 255, 255); transform-origin: 179.405px 240.885px;" id="elyg3rcntlp2g" class="animable"></rect><rect x="189.34" y="258.13" width="15.24" height="7.78" style="fill: rgb(255, 255, 255); transform-origin: 196.96px 262.02px;" id="elrytrygwadp" class="animable"></rect><g id="elky5li15dc3d"><rect x="180.51" y="283.75" width="16.18" height="9.64" style="fill: rgb(255, 255, 255); transform-origin: 188.6px 288.57px; transform: rotate(13.9deg);" class="animable"></rect></g><rect x="213.17" y="230" width="85.88" height="77.99" style="fill: rgb(95, 206, 214); transform-origin: 256.11px 268.995px;" id="elsncxoqnmeqg" class="animable"></rect><g style="clip-path: url(&quot;#freepik--clip-path-7--inject-12&quot;); transform-origin: 256.11px 268.995px;" id="el8erv1v7eg2m" class="animable"><g id="el10qlyrguxl3h"><rect x="213.17" y="230" width="85.88" height="77.99" style="opacity: 0.37; transform-origin: 256.11px 268.995px;" class="animable"></rect></g></g><rect x="213.17" y="230" width="61.2" height="77.99" style="fill: rgb(95, 206, 214); transform-origin: 243.77px 268.995px;" id="elb95ewutf1y9" class="animable"></rect><rect x="236.83" y="230" width="13.15" height="21.77" style="fill: rgb(255, 255, 255); transform-origin: 243.405px 240.885px;" id="elt92gt0dchg" class="animable"></rect><rect x="253.34" y="258.13" width="15.24" height="7.78" style="fill: rgb(255, 255, 255); transform-origin: 260.96px 262.02px;" id="el73s0tg5q6y" class="animable"></rect><g id="el7a84gs7h9d9"><rect x="244.51" y="283.75" width="16.18" height="9.64" style="fill: rgb(255, 255, 255); transform-origin: 252.6px 288.57px; transform: rotate(13.9deg);" class="animable"></rect></g><rect x="277.17" y="230" width="85.88" height="77.99" style="fill: rgb(95, 206, 214); transform-origin: 320.11px 268.995px;" id="eluqqix4tmtp" class="animable"></rect><g style="clip-path: url(&quot;#freepik--clip-path-8--inject-12&quot;); transform-origin: 320.11px 268.995px;" id="elupkgvprdgi" class="animable"><g id="elsm8poy65dec"><rect x="277.17" y="230" width="85.88" height="77.99" style="opacity: 0.37; transform-origin: 320.11px 268.995px;" class="animable"></rect></g></g><rect x="277.17" y="230" width="61.2" height="77.99" style="fill: rgb(95, 206, 214); transform-origin: 307.77px 268.995px;" id="elcjuty4s7eac" class="animable"></rect><rect x="300.83" y="230" width="13.15" height="21.77" style="fill: rgb(255, 255, 255); transform-origin: 307.405px 240.885px;" id="elnqr99nkbuyf" class="animable"></rect><rect x="317.34" y="258.13" width="15.24" height="7.78" style="fill: rgb(255, 255, 255); transform-origin: 324.96px 262.02px;" id="elscsmda89vma" class="animable"></rect><g id="elzkus6n2yb5q"><rect x="308.51" y="283.75" width="16.18" height="9.64" style="fill: rgb(255, 255, 255); transform-origin: 316.6px 288.57px; transform: rotate(13.9deg);" class="animable"></rect></g><rect x="85.17" y="337" width="85.88" height="77.99" style="fill: rgb(95, 206, 214); transform-origin: 128.11px 375.995px;" id="elugf11rm8l2" class="animable"></rect><g style="clip-path: url(&quot;#freepik--clip-path-9--inject-12&quot;); transform-origin: 128.11px 375.995px;" id="el8h7gclme7db" class="animable"><g id="ell9hdtgyha1s"><rect x="85.17" y="337" width="85.88" height="77.99" style="opacity: 0.37; transform-origin: 128.11px 375.995px;" class="animable"></rect></g></g><rect x="85.17" y="337" width="61.2" height="77.99" style="fill: rgb(95, 206, 214); transform-origin: 115.77px 375.995px;" id="elippt86vbafc" class="animable"></rect><rect x="108.83" y="337" width="13.15" height="21.77" style="fill: rgb(255, 255, 255); transform-origin: 115.405px 347.885px;" id="elxnbat5lwh5i" class="animable"></rect><rect x="125.34" y="365.13" width="15.24" height="7.78" style="fill: rgb(255, 255, 255); transform-origin: 132.96px 369.02px;" id="elq73hii6de3" class="animable"></rect><g id="el7c91qmljrpw"><rect x="116.51" y="390.75" width="16.18" height="9.64" style="fill: rgb(255, 255, 255); transform-origin: 124.6px 395.57px; transform: rotate(13.9deg);" class="animable"></rect></g><rect x="149.17" y="337" width="85.88" height="77.99" style="fill: rgb(95, 206, 214); transform-origin: 192.11px 375.995px;" id="elh0sfxc1l74q" class="animable"></rect><g style="clip-path: url(&quot;#freepik--clip-path-10--inject-12&quot;); transform-origin: 192.11px 375.995px;" id="eljbqojd8nn5" class="animable"><g id="eldofobj0wb4u"><rect x="149.17" y="337" width="85.88" height="77.99" style="opacity: 0.37; transform-origin: 192.11px 375.995px;" class="animable"></rect></g></g><rect x="149.17" y="337" width="61.2" height="77.99" style="fill: rgb(95, 206, 214); transform-origin: 179.77px 375.995px;" id="el7d3hveeq3ho" class="animable"></rect><rect x="172.83" y="337" width="13.15" height="21.77" style="fill: rgb(255, 255, 255); transform-origin: 179.405px 347.885px;" id="elg9kxlabwng" class="animable"></rect><rect x="189.34" y="365.13" width="15.24" height="7.78" style="fill: rgb(255, 255, 255); transform-origin: 196.96px 369.02px;" id="eloam087ddql" class="animable"></rect><g id="eliuw0mds9zue"><rect x="180.51" y="390.75" width="16.18" height="9.64" style="fill: rgb(255, 255, 255); transform-origin: 188.6px 395.57px; transform: rotate(13.9deg);" class="animable"></rect></g><rect x="213.17" y="337" width="85.88" height="77.99" style="fill: rgb(95, 206, 214); transform-origin: 256.11px 375.995px;" id="elleed1xs6lmd" class="animable"></rect><g style="clip-path: url(&quot;#freepik--clip-path-11--inject-12&quot;); transform-origin: 256.11px 375.995px;" id="ell8ri6n1uku" class="animable"><g id="el2g2cy9avl1j"><rect x="213.17" y="337" width="85.88" height="77.99" style="opacity: 0.37; transform-origin: 256.11px 375.995px;" class="animable"></rect></g></g><rect x="213.17" y="337" width="61.2" height="77.99" style="fill: rgb(95, 206, 214); transform-origin: 243.77px 375.995px;" id="el5b0ny0uuvcv" class="animable"></rect><rect x="236.83" y="337" width="13.15" height="21.77" style="fill: rgb(255, 255, 255); transform-origin: 243.405px 347.885px;" id="el7ps3uanzq4j" class="animable"></rect><rect x="253.34" y="365.13" width="15.24" height="7.78" style="fill: rgb(255, 255, 255); transform-origin: 260.96px 369.02px;" id="elghemvncv2oh" class="animable"></rect><g id="elawoisyo7sb"><rect x="244.51" y="390.75" width="16.18" height="9.64" style="fill: rgb(255, 255, 255); transform-origin: 252.6px 395.57px; transform: rotate(13.9deg);" class="animable"></rect></g><rect x="277.17" y="337" width="85.88" height="77.99" style="fill: rgb(95, 206, 214); transform-origin: 320.11px 375.995px;" id="elyd31ubatal" class="animable"></rect><g style="clip-path: url(&quot;#freepik--clip-path-12--inject-12&quot;); transform-origin: 320.11px 375.995px;" id="eloqpgsfeuxjb" class="animable"><g id="el2q5sqp8lcw6"><rect x="277.17" y="337" width="85.88" height="77.99" style="opacity: 0.37; transform-origin: 320.11px 375.995px;" class="animable"></rect></g></g><rect x="277.17" y="337" width="61.2" height="77.99" style="fill: rgb(95, 206, 214); transform-origin: 307.77px 375.995px;" id="elu1srkts9i8f" class="animable"></rect><rect x="300.83" y="337" width="13.15" height="21.77" style="fill: rgb(255, 255, 255); transform-origin: 307.405px 347.885px;" id="el6y7748t1hnk" class="animable"></rect><rect x="317.34" y="365.13" width="15.24" height="7.78" style="fill: rgb(255, 255, 255); transform-origin: 324.96px 369.02px;" id="elkjzk5jowbij" class="animable"></rect><g id="ely79xuqxjyw"><rect x="308.51" y="390.75" width="16.18" height="9.64" style="fill: rgb(255, 255, 255); transform-origin: 316.6px 395.57px; transform: rotate(13.9deg);" class="animable"></rect></g><rect x="71" y="94.34" width="300" height="14" style="fill: rgb(163, 163, 163); transform-origin: 221px 101.34px;" id="elxkehv9wrdu" class="animable"></rect><rect x="71" y="198.34" width="300" height="14" style="fill: rgb(163, 163, 163); transform-origin: 221px 205.34px;" id="elq4ndpaafvin" class="animable"></rect><rect x="71" y="302.33" width="300" height="14" style="fill: rgb(163, 163, 163); transform-origin: 221px 309.33px;" id="el20wfmpryy7f" class="animable"></rect><rect x="71" y="406.33" width="300" height="14" style="fill: rgb(163, 163, 163); transform-origin: 221px 413.33px;" id="ellgffx2117uo" class="animable"></rect><rect x="415" y="35.34" width="13" height="425" style="fill: rgb(122, 122, 122); transform-origin: 421.5px 247.84px;" id="elefua1ybz17" class="animable"></rect><rect x="138" y="35.34" width="13" height="425" style="fill: rgb(122, 122, 122); transform-origin: 144.5px 247.84px;" id="elp2fkkk15gw" class="animable"></rect><rect x="364" y="94.34" width="61" height="14" style="fill: rgb(117, 117, 117); transform-origin: 394.5px 101.34px;" id="elv1a664ip1ad" class="animable"></rect><rect x="364" y="198.34" width="61" height="14" style="fill: rgb(117, 117, 117); transform-origin: 394.5px 205.34px;" id="elr2vljjc56j" class="animable"></rect><rect x="364" y="302.33" width="61" height="14" style="fill: rgb(117, 117, 117); transform-origin: 394.5px 309.33px;" id="elkk8t5bgv4gp" class="animable"></rect><rect x="364" y="406.33" width="61" height="14" style="fill: rgb(117, 117, 117); transform-origin: 394.5px 413.33px;" id="elbkn0m448244" class="animable"></rect><rect x="70" y="35.34" width="13" height="425" style="fill: rgb(163, 163, 163); transform-origin: 76.5px 247.84px;" id="elto6o7lwfbe" class="animable"></rect><rect x="214" y="35.34" width="13" height="425" style="fill: rgb(163, 163, 163); transform-origin: 220.5px 247.84px;" id="elsiz9tni1w99" class="animable"></rect><rect x="358" y="35.34" width="13" height="425" style="fill: rgb(163, 163, 163); transform-origin: 364.5px 247.84px;" id="elk7l2g7r27y9" class="animable"></rect></g><g id="freepik--boxes-1--inject-12" class="animable" style="transform-origin: 307.87px 321.69px;"><rect x="242.71" y="183.05" width="102.02" height="92.64" style="fill: rgb(95, 206, 214); transform-origin: 293.72px 229.37px;" id="elgcccu466fib" class="animable"></rect><g style="clip-path: url(&quot;#freepik--clip-path-13--inject-12&quot;); transform-origin: 293.72px 229.37px;" id="elo2p3jeh1e2g" class="animable"><g id="elddtxluj4f58"><rect x="242.71" y="183.05" width="102.02" height="92.64" style="opacity: 0.37; transform-origin: 293.72px 229.37px;" class="animable"></rect></g></g><rect x="242.71" y="183.05" width="102.02" height="92.64" style="fill: none; stroke: rgb(38, 50, 56); stroke-linecap: round; stroke-linejoin: round; transform-origin: 293.72px 229.37px;" id="elfik36i479el" class="animable"></rect><rect x="242.71" y="183.05" width="72.71" height="92.64" style="fill: rgb(95, 206, 214); stroke: rgb(38, 50, 56); stroke-linecap: round; stroke-linejoin: round; transform-origin: 279.065px 229.37px;" id="elthz6p4pvwa" class="animable"></rect><rect x="270.81" y="183.05" width="15.62" height="25.86" style="fill: rgb(255, 255, 255); stroke: rgb(38, 50, 56); stroke-linecap: round; stroke-linejoin: round; transform-origin: 278.62px 195.98px;" id="elkb7997a8jx" class="animable"></rect><rect x="290.43" y="216.46" width="18.11" height="9.24" style="fill: rgb(255, 255, 255); transform-origin: 299.485px 221.08px;" id="elah1eqkizz9" class="animable"></rect><g id="el6knopy64jj6"><rect x="279.93" y="246.9" width="19.22" height="11.46" style="fill: rgb(255, 255, 255); transform-origin: 289.54px 252.63px; transform: rotate(13.9deg);" class="animable"></rect></g><rect x="181.35" y="367.69" width="102.02" height="92.64" style="fill: rgb(95, 206, 214); transform-origin: 232.36px 414.01px;" id="el1rfieele7sc" class="animable"></rect><g style="clip-path: url(&quot;#freepik--clip-path-14--inject-12&quot;); transform-origin: 232.36px 414.01px;" id="el2iyqt1lh26g" class="animable"><g id="elc3z3jaip4l"><rect x="181.35" y="367.69" width="102.02" height="92.64" style="opacity: 0.37; transform-origin: 232.36px 414.01px;" class="animable"></rect></g></g><rect x="181.35" y="367.69" width="102.02" height="92.64" style="fill: none; stroke: rgb(38, 50, 56); stroke-linecap: round; stroke-linejoin: round; transform-origin: 232.36px 414.01px;" id="el3n56hsq0guj" class="animable"></rect><rect x="181.35" y="367.69" width="72.71" height="92.64" style="fill: rgb(95, 206, 214); stroke: rgb(38, 50, 56); stroke-linecap: round; stroke-linejoin: round; transform-origin: 217.705px 414.01px;" id="ellooyjgr1mf" class="animable"></rect><rect x="209.45" y="367.69" width="15.62" height="25.86" style="fill: rgb(255, 255, 255); stroke: rgb(38, 50, 56); stroke-linecap: round; stroke-linejoin: round; transform-origin: 217.26px 380.62px;" id="elw94mxnu2mxp" class="animable"></rect><rect x="188.42" y="443.61" width="18.11" height="9.24" style="fill: rgb(255, 255, 255); transform-origin: 197.475px 448.23px;" id="el24lugs3nczrh" class="animable"></rect><g id="el6i9crzrlblj"><rect x="224.27" y="398.52" width="19.22" height="11.46" style="fill: rgb(255, 255, 255); transform-origin: 233.88px 404.25px; transform: rotate(13.9deg);" class="animable"></rect></g><rect x="256.37" y="367.69" width="102.02" height="92.64" style="fill: rgb(95, 206, 214); transform-origin: 307.38px 414.01px;" id="eluqtm9r4cu0a" class="animable"></rect><g style="clip-path: url(&quot;#freepik--clip-path-15--inject-12&quot;); transform-origin: 307.38px 414.01px;" id="elvg4iw6q3oh" class="animable"><g id="elzb26xzucho"><rect x="256.37" y="367.69" width="102.02" height="92.64" style="opacity: 0.37; transform-origin: 307.38px 414.01px;" class="animable"></rect></g></g><rect x="256.37" y="367.69" width="102.02" height="92.64" style="fill: none; stroke: rgb(38, 50, 56); stroke-linecap: round; stroke-linejoin: round; transform-origin: 307.38px 414.01px;" id="el6qhngp5i97x" class="animable"></rect><rect x="256.37" y="367.69" width="72.71" height="92.64" style="fill: rgb(95, 206, 214); stroke: rgb(38, 50, 56); stroke-linecap: round; stroke-linejoin: round; transform-origin: 292.725px 414.01px;" id="el9po9n4r5dbp" class="animable"></rect><rect x="284.47" y="367.69" width="15.62" height="25.86" style="fill: rgb(255, 255, 255); stroke: rgb(38, 50, 56); stroke-linecap: round; stroke-linejoin: round; transform-origin: 292.28px 380.62px;" id="elncyjtbzslqg" class="animable"></rect><rect x="304.09" y="401.11" width="18.11" height="9.24" style="fill: rgb(255, 255, 255); transform-origin: 313.145px 405.73px;" id="el9xfmlmtl96k" class="animable"></rect><g id="elehc4k33ney6"><rect x="261.59" y="392.24" width="19.22" height="11.46" style="fill: rgb(255, 255, 255); transform-origin: 271.2px 397.97px; transform: rotate(13.9deg);" class="animable"></rect></g><rect x="332.37" y="367.69" width="102.02" height="92.64" style="fill: rgb(95, 206, 214); transform-origin: 383.38px 414.01px;" id="elnitpqfp7rz" class="animable"></rect><g style="clip-path: url(&quot;#freepik--clip-path-16--inject-12&quot;); transform-origin: 383.38px 414.01px;" id="elluvlh08ds29" class="animable"><g id="elajf63qlemqa"><rect x="332.37" y="367.69" width="102.02" height="92.64" style="opacity: 0.37; transform-origin: 383.38px 414.01px;" class="animable"></rect></g></g><rect x="332.37" y="367.69" width="102.02" height="92.64" style="fill: none; stroke: rgb(38, 50, 56); stroke-linecap: round; stroke-linejoin: round; transform-origin: 383.38px 414.01px;" id="el7ygnig9y2pf" class="animable"></rect><rect x="332.37" y="367.69" width="72.71" height="92.64" style="fill: rgb(95, 206, 214); stroke: rgb(38, 50, 56); stroke-linecap: round; stroke-linejoin: round; transform-origin: 368.725px 414.01px;" id="eltdyx6wprq1" class="animable"></rect><rect x="360.47" y="367.69" width="15.62" height="25.86" style="fill: rgb(255, 255, 255); stroke: rgb(38, 50, 56); stroke-linecap: round; stroke-linejoin: round; transform-origin: 368.28px 380.62px;" id="el2o3ngx377ob" class="animable"></rect><rect x="380.09" y="401.11" width="18.11" height="9.24" style="fill: rgb(255, 255, 255); transform-origin: 389.145px 405.73px;" id="els9f7lqr7ug" class="animable"></rect><g id="elhg1hk00gakf"><rect x="337.59" y="392.24" width="19.22" height="11.46" style="fill: rgb(255, 255, 255); transform-origin: 347.2px 397.97px; transform: rotate(13.9deg);" class="animable"></rect></g><rect x="216.53" y="275.3" width="102.02" height="92.64" style="fill: rgb(95, 206, 214); transform-origin: 267.54px 321.62px;" id="el8gfvily0lb" class="animable"></rect><g style="clip-path: url(&quot;#freepik--clip-path-17--inject-12&quot;); transform-origin: 267.54px 321.62px;" id="el8azmjczy4b3" class="animable"><g id="elwdk9pnbnjmc"><rect x="216.53" y="275.3" width="102.02" height="92.64" style="opacity: 0.37; transform-origin: 267.54px 321.62px;" class="animable"></rect></g></g><rect x="216.53" y="275.3" width="102.02" height="92.64" style="fill: none; stroke: rgb(38, 50, 56); stroke-linecap: round; stroke-linejoin: round; transform-origin: 267.54px 321.62px;" id="el4u0qdbkb3z" class="animable"></rect><rect x="216.53" y="275.3" width="72.71" height="92.64" style="fill: rgb(95, 206, 214); stroke: rgb(38, 50, 56); stroke-linecap: round; stroke-linejoin: round; transform-origin: 252.885px 321.62px;" id="elw7yg61o0d3" class="animable"></rect><rect x="244.62" y="275.3" width="15.62" height="25.86" style="fill: rgb(255, 255, 255); stroke: rgb(38, 50, 56); stroke-linecap: round; stroke-linejoin: round; transform-origin: 252.43px 288.23px;" id="elyvsrvxm6bh8" class="animable"></rect><rect x="264.25" y="308.72" width="18.11" height="9.24" style="fill: rgb(255, 255, 255); transform-origin: 273.305px 313.34px;" id="elrxtxto4vtcb" class="animable"></rect><g id="elgejbnu83glg"><rect x="221.74" y="299.85" width="19.22" height="11.46" style="fill: rgb(255, 255, 255); transform-origin: 231.35px 305.58px; transform: rotate(13.9deg);" class="animable"></rect></g><rect x="297.53" y="275.3" width="102.02" height="92.64" style="fill: rgb(95, 206, 214); transform-origin: 348.54px 321.62px;" id="el5k9a1ev8zqc" class="animable"></rect><g style="clip-path: url(&quot;#freepik--clip-path-18--inject-12&quot;); transform-origin: 348.54px 321.62px;" id="elbju1myx2h8d" class="animable"><g id="eldcelnml9azi"><rect x="297.53" y="275.3" width="102.02" height="92.64" style="opacity: 0.37; transform-origin: 348.54px 321.62px;" class="animable"></rect></g></g><rect x="297.53" y="275.3" width="102.02" height="92.64" style="fill: none; stroke: rgb(38, 50, 56); stroke-linecap: round; stroke-linejoin: round; transform-origin: 348.54px 321.62px;" id="elhuykq29y19u" class="animable"></rect><rect x="297.53" y="275.3" width="72.71" height="92.64" style="fill: rgb(95, 206, 214); stroke: rgb(38, 50, 56); stroke-linecap: round; stroke-linejoin: round; transform-origin: 333.885px 321.62px;" id="eln7d9zi1s4f" class="animable"></rect><rect x="325.62" y="275.3" width="15.62" height="25.86" style="fill: rgb(255, 255, 255); stroke: rgb(38, 50, 56); stroke-linecap: round; stroke-linejoin: round; transform-origin: 333.43px 288.23px;" id="el80utt1q583" class="animable"></rect><rect x="345.25" y="308.72" width="18.11" height="9.24" style="fill: rgb(255, 255, 255); transform-origin: 354.305px 313.34px;" id="elmd66qtgkc8" class="animable"></rect><g id="el8e2uhb1wntu"><rect x="307.24" y="321.75" width="19.22" height="11.46" style="fill: rgb(255, 255, 255); transform-origin: 316.85px 327.48px; transform: rotate(13.9deg);" class="animable"></rect></g></g><g id="freepik--Floor--inject-12" class="animable" style="transform-origin: 257.4px 460.33px;"><line x1="38.4" y1="460.33" x2="476.4" y2="460.33" style="fill: none; stroke: rgb(38, 50, 56); stroke-linecap: round; stroke-linejoin: round; transform-origin: 257.4px 460.33px;" id="elzt1bw4l0aok" class="animable"></line></g><g id="freepik--Character--inject-12" class="animable" style="transform-origin: 163.344px 264.756px;"><path d="M116.2,430.47S112,439,109,443.82s-8.57,11.16-8,16.74,6.38,6.18,12.36,3,11.36-9.56,13-14.35,6.78-8.77,6.78-14.15-.4-6-2.39-6.58S118.19,427.08,116.2,430.47Z" style="fill: rgb(255, 255, 255); stroke: rgb(38, 50, 56); stroke-linecap: round; stroke-linejoin: round; transform-origin: 117.05px 446.718px;" id="elb3zkky7byl" class="animable"></path><path d="M133.14,435.05c0-.79,0-1.47,0-2.07a37.73,37.73,0,0,1-2,4.86c-2.2,4.39-5.39,7-6.58,12.36s-8.77,11.56-15.35,13.15-8-3.78-8-3.78l-.24,0a6.85,6.85,0,0,0,0,1c.6,5.58,6.38,6.18,12.36,3s11.36-9.56,13-14.35S133.14,440.43,133.14,435.05Z" style="fill: rgb(38, 50, 56); stroke: rgb(38, 50, 56); stroke-linecap: round; stroke-linejoin: round; transform-origin: 117.046px 449.237px;" id="eln01v78icji" class="animable"></path><path d="M117,434.05s2.4,3.39,10.37,2.4" style="fill: none; stroke: rgb(38, 50, 56); stroke-linecap: round; stroke-linejoin: round; transform-origin: 122.185px 435.341px;" id="el9rx9ckll0xg" class="animable"></path><path d="M116.8,436.85a11.49,11.49,0,0,0,8.37,2.39" style="fill: none; stroke: rgb(38, 50, 56); stroke-linecap: round; stroke-linejoin: round; transform-origin: 120.985px 438.08px;" id="el16yz75zt9x" class="animable"></path><path d="M116,439.24a8.23,8.23,0,0,0,7,2.59" style="fill: none; stroke: rgb(38, 50, 56); stroke-linecap: round; stroke-linejoin: round; transform-origin: 119.5px 440.563px;" id="el00yza4adfp0i" class="animable"></path><path d="M115.2,442.63s1.4,2.79,6.78,2.19" style="fill: none; stroke: rgb(38, 50, 56); stroke-linecap: round; stroke-linejoin: round; transform-origin: 118.59px 443.767px;" id="el16u80ptpirr" class="animable"></path><path d="M167.22,438a33.82,33.82,0,0,0,12,11.36c7.77,4.19,17.74,7,18.53,9a3.35,3.35,0,0,1-1.19,4.19c-1,.59-15.75,1-23.52-.4a55.57,55.57,0,0,0-13.35-1.2c-3.59,0-11.36,1-12.36-3.39s1.59-20.33,1.59-20.33S160.64,440.63,167.22,438Z" style="fill: rgb(255, 255, 255); stroke: rgb(38, 50, 56); stroke-miterlimit: 10; transform-origin: 172.578px 450.163px;" id="el83qgocohv08" class="animable"></path><path d="M196.52,462.56a3.28,3.28,0,0,0,1.44-3.18,65.67,65.67,0,0,1-9.41,1.58c-8,.8-19.93-1.79-29.3-2.19-6.88-.29-10.64-1.88-12.15-2.69a10.33,10.33,0,0,0,.19,1.49c1,4.39,8.77,3.39,12.36,3.39a55.57,55.57,0,0,1,13.35,1.2C180.77,463.55,195.52,463.15,196.52,462.56Z" style="fill: rgb(38, 50, 56); stroke: rgb(38, 50, 56); stroke-miterlimit: 10; transform-origin: 172.545px 459.591px;" id="elke8hdmv215h" class="animable"></path><path d="M170.21,442.63a12.65,12.65,0,0,0-3.59,4.58" style="fill: none; stroke: rgb(38, 50, 56); stroke-miterlimit: 10; transform-origin: 168.415px 444.92px;" id="eltq349tg02o" class="animable"></path><path d="M172.6,445.61s-2.59,2.2-2.59,3.59" style="fill: none; stroke: rgb(38, 50, 56); stroke-miterlimit: 10; transform-origin: 171.305px 447.405px;" id="elgqqagwqxmr" class="animable"></path><path d="M175.19,447.61a16.52,16.52,0,0,0-1.59,3.59" style="fill: none; stroke: rgb(38, 50, 56); stroke-miterlimit: 10; transform-origin: 174.395px 449.405px;" id="eldf0h1320shn" class="animable"></path><path d="M179.18,449.4s-1.6,1.4-1.6,2.79" style="fill: none; stroke: rgb(38, 50, 56); stroke-miterlimit: 10; transform-origin: 178.38px 450.795px;" id="ele4axglovqhv" class="animable"></path><path d="M110.93,226.33s-6.34,30.17-5.84,46.67,23,57.5,23,57.5-12,29.5-12.5,42.5.52,54.85.52,54.85,5,2.9,9.53,2.9,9.94-2.28,9.94-2.28l11.51-45,.5,54.5a21.48,21.48,0,0,0,11,3,19.4,19.4,0,0,0,11-3.5s8-57.5,9-67,7.5-38,8-40,10-33.5,10-59-7.33-40.83-7.33-40.83-25.67-5.67-44.67-6.17A203.9,203.9,0,0,0,110.93,226.33Z" style="fill: rgb(38, 50, 56); stroke: rgb(38, 50, 56); stroke-linecap: round; stroke-linejoin: round; transform-origin: 150.826px 332.681px;" id="elx6kopg51vzn" class="animable"></path><path d="M150.59,376s13-37,13-46-8.5-65-8.5-65" style="fill: none; stroke: rgb(135, 135, 135); stroke-miterlimit: 10; transform-origin: 157.09px 320.5px;" id="elmvnz0ee3dgk" class="animable"></path><path d="M158.59,282s7.5-8.5,10-13.5" style="fill: none; stroke: rgb(135, 135, 135); stroke-miterlimit: 10; transform-origin: 163.59px 275.25px;" id="elubivfp6i9xc" class="animable"></path><path d="M188.26,149.67s10.33,6,16,15,18,47,17.33,56.66-3.66,12.34-12.33,10.67-9.33-11.33-11.33-19.33S185.26,154,185.26,154l-.33-4.67Z" style="fill: rgb(255, 255, 255); stroke: rgb(38, 50, 56); stroke-linecap: round; stroke-linejoin: round; transform-origin: 203.273px 190.897px;" id="el8a1fbcqvahk" class="animable"></path><path d="M221.59,221.33c.34-4.92-2.69-17.2-6.5-29.25L194,195c1.77,8.2,3.29,15.09,3.93,17.64,2,8,2.66,17.66,11.33,19.33S220.93,231,221.59,221.33Z" style="fill: rgb(207, 207, 207); stroke: rgb(38, 50, 56); stroke-linecap: round; stroke-linejoin: round; transform-origin: 207.808px 212.259px;" id="eli1qmttl9rv" class="animable"></path><path d="M119.26,146.67s-8,1.66-10,15.66,2.67,37,2.67,37l-1,27s33.33,8.67,47,8.67,31.33-4.33,31.33-4.33-7.33-67.34-8.67-73-7.33-11.34-12.33-15-17.67-3.34-25-1.34-17.67,6-17.67,6Z" style="fill: rgb(255, 255, 255); stroke: rgb(38, 50, 56); stroke-linecap: round; stroke-linejoin: round; transform-origin: 149.011px 187.43px;" id="ely7hfr4b93lq" class="animable"></path><path d="M143.26,137.33s7,28.34,7.67,47.67-3,79.33-3,79.33-15.67.67-27-1.33-19.34-3-19.34-3l10-62.33s13.67,1,16.67-8.67-1-29-4.67-35-4.33-7.33-4.33-7.33Z" style="fill: rgb(95, 206, 214); stroke: rgb(38, 50, 56); stroke-linecap: round; stroke-linejoin: round; transform-origin: 126.301px 200.884px;" id="el8y9bbbshus3" class="animable"></path><path d="M173.59,163.67s7.34,28,6.67,56-1,43-1,43,16-1,25-4.67c0,0-5-65.33-9.67-84.67s-6.33-23.66-6.33-23.66L169.59,142Z" style="fill: rgb(95, 206, 214); stroke: rgb(38, 50, 56); stroke-linecap: round; stroke-linejoin: round; transform-origin: 186.925px 202.335px;" id="elgvgs3h9bdhm" class="animable"></path><path d="M150.44,131.89s-7,1.3-8.84,4.94,7.28,33.54,7.28,33.54l13.26-10.92,16.38,9.36s-3.12-22.62-9.88-30.42S150.44,131.89,150.44,131.89Z" style="fill: rgb(255, 255, 255); stroke: rgb(38, 50, 56); stroke-linecap: round; stroke-linejoin: round; transform-origin: 159.937px 151.089px;" id="elt8vrj82jglf" class="animable"></path><path d="M147.58,112.92s-.26,26.25,2.6,33,10.4,16.64,13.26,15.08,3.64-20.54,4.16-21.84,2.6-12,2.6-12S151.48,122,147.58,112.92Z" style="fill: rgb(207, 207, 207); stroke: rgb(38, 50, 56); stroke-linecap: round; stroke-linejoin: round; transform-origin: 158.887px 137.042px;" id="elpe86rflaomc" class="animable"></path><path d="M147.58,112.92s-.1,10.54.55,20a18.61,18.61,0,0,0,11.76,6.44,23.66,23.66,0,0,0,7.69-.1.19.19,0,0,1,0-.07c.52-1.3,2.6-12,2.6-12S151.48,122,147.58,112.92Z" style="fill: rgb(38, 50, 56); stroke: rgb(38, 50, 56); stroke-linecap: round; stroke-linejoin: round; transform-origin: 158.877px 126.273px;" id="elvbxtvcp2kof" class="animable"></path><path d="M176.83,203.24l-2,1.22-11.57-18.91a1.17,1.17,0,0,1,.39-1.6h0a1.16,1.16,0,0,1,1.6.38Z" style="fill: rgb(255, 255, 255); stroke: rgb(38, 50, 56); stroke-linecap: round; stroke-linejoin: round; transform-origin: 169.961px 194.118px;" id="el828cwljfs6o" class="animable"></path><path d="M119.26,146.67s-7.67.66-12.33,9.66-12,51.34-13.34,63.67,6,11.33,7,11.33,54-17.66,54-17.66l18-2s-2,1.66-.33,1.66,5-3.33,6.33-5.33-4-13-6-14.33-20,12-20,12l-35,2.33,9-30.67" style="fill: rgb(255, 255, 255); stroke: rgb(38, 50, 56); stroke-linecap: round; stroke-linejoin: round; transform-origin: 136.114px 189.01px;" id="elgmrocnajwrf" class="animable"></path><path d="M172.59,193.67c-2-1.34-20,12-20,12l-35,2.33,2.22-7.56-22.39-5.05c-1.85,10.27-3.3,19.76-3.83,24.61-1.33,12.33,6,11.33,7,11.33s54-17.66,54-17.66l18-2s-2,1.66-.33,1.66,5-3.33,6.33-5.33S174.59,195,172.59,193.67Z" style="fill: rgb(207, 207, 207); stroke: rgb(38, 50, 56); stroke-linecap: round; stroke-linejoin: round; transform-origin: 136.115px 212.462px;" id="el4q07dzib2gg" class="animable"></path><path d="M172.59,193.67c-2-1.34-20,12-20,12l-5.1.34a19.21,19.21,0,0,0,2.31,9.25l4.79-1.59,18-2s-2,1.66-.33,1.66,5-3.33,6.33-5.33S174.59,195,172.59,193.67Z" style="fill: rgb(102, 102, 102); stroke: rgb(38, 50, 56); stroke-linecap: round; stroke-linejoin: round; transform-origin: 163.145px 204.418px;" id="elq320yrzzq1" class="animable"></path><polygon points="190.26 178 156.26 225.67 200.93 224 233.26 180 190.26 178" style="fill: rgb(38, 50, 56); stroke: rgb(38, 50, 56); stroke-linecap: round; stroke-linejoin: round; transform-origin: 194.76px 201.835px;" id="elukr2sfu2lu" class="animable"></polygon><polygon points="205.27 176.6 202.66 180.94 222.21 181.38 224.82 177.03 205.27 176.6" style="fill: rgb(38, 50, 56); stroke: rgb(38, 50, 56); stroke-linecap: round; stroke-linejoin: round; transform-origin: 213.74px 178.99px;" id="eltrqfbogo9dd" class="animable"></polygon><path d="M218.48,205.05a19.87,19.87,0,0,1-4.76,1.1c-2,.09-3.84,1.1-3.84,2.11s3.57,1.19,6.13,1.19,4.57-.55,5-2.2S220.86,204.14,218.48,205.05Z" style="fill: rgb(102, 102, 102); stroke: rgb(38, 50, 56); stroke-linecap: round; stroke-linejoin: round; transform-origin: 215.51px 207.11px;" id="eln5uf6vux8g" class="animable"></path><path d="M220.78,200.58a25.31,25.31,0,0,1-6,1.4c-2.55.11-4.87,1.39-4.87,2.66s4.52,1.51,7.77,1.51,5.8-.69,6.38-2.78S223.8,199.42,220.78,200.58Z" style="fill: rgb(102, 102, 102); stroke: rgb(38, 50, 56); stroke-linecap: round; stroke-linejoin: round; transform-origin: 217.071px 203.186px;" id="elp0i5ujj8h1k" class="animable"></path><path d="M222.63,196.76a25.31,25.31,0,0,1-6,1.4c-2.56.11-4.88,1.39-4.88,2.66s4.53,1.51,7.78,1.51,5.8-.69,6.38-2.78S225.65,195.6,222.63,196.76Z" style="fill: rgb(102, 102, 102); stroke: rgb(38, 50, 56); stroke-linecap: round; stroke-linejoin: round; transform-origin: 218.916px 199.366px;" id="elg8zhkjldwt5" class="animable"></path><path d="M223.88,192.44a25.51,25.51,0,0,1-6,1.39c-2.55.11-4.87,1.39-4.87,2.67s4.52,1.51,7.77,1.51,5.8-.7,6.38-2.79S226.9,191.28,223.88,192.44Z" style="fill: rgb(102, 102, 102); stroke: rgb(38, 50, 56); stroke-linecap: round; stroke-linejoin: round; transform-origin: 220.171px 195.046px;" id="elzjfqfsekqkc" class="animable"></path><path d="M115.08,418.32s-.21,10.36.2,12,7.67,3.72,12.22,3.72,7.46-1,8.29-2.27,2.27-9.74,2.27-9.74S121.91,425.37,115.08,418.32Z" style="fill: rgb(102, 102, 102); stroke: rgb(38, 50, 56); stroke-linecap: round; stroke-linejoin: round; transform-origin: 126.543px 426.18px;" id="elz0yshdltu" class="animable"></path><path d="M138,104.6a19.5,19.5,0,0,0-19.23,3.64c-9.1,7.8-1,21.84,8.58,23.4s15.85-2.86,17.41-9.88S143.74,104.34,138,104.6Z" style="fill: rgb(38, 50, 56); stroke: rgb(38, 50, 56); stroke-linecap: round; stroke-linejoin: round; transform-origin: 130.002px 117.723px;" id="el2y7xvnfe17a" class="animable"></path><path d="M184,102.26s-1.3,13-3.9,22.1-9.36,12.48-19,11.18-15.08-9.1-18.2-18.2-3.38-21.58-3.38-21.58Z" style="fill: rgb(207, 207, 207); stroke: rgb(38, 50, 56); stroke-linecap: round; stroke-linejoin: round; transform-origin: 161.76px 115.784px;" id="el230a0nxm9tc" class="animable"></path><path d="M140.88,102S144,104.86,151,99.92s3.64-7.28,3.64-7.28l-16.64,1Z" style="fill: rgb(38, 50, 56); stroke: rgb(38, 50, 56); stroke-linecap: round; stroke-linejoin: round; transform-origin: 146.723px 97.7317px;" id="elcn1gljx5irt" class="animable"></path><path d="M173.64,105.38s-1.3,3.9-.52,5.2,2.86,3.12.52,5.2a3.77,3.77,0,0,1-6-1" style="fill: none; stroke: rgb(38, 50, 56); stroke-linecap: round; stroke-linejoin: round; transform-origin: 171.179px 111.116px;" id="el0zzb98zx8q9" class="animable"></path><path d="M159.14,117s4,5.19,11.58,2.8" style="fill: none; stroke: rgb(38, 50, 56); stroke-linecap: round; stroke-linejoin: round; transform-origin: 164.93px 118.715px;" id="el0y697zc7v06i" class="animable"></path><path d="M164.8,106.94c0,1.44-.58,2.6-1.3,2.6s-1.3-1.16-1.3-2.6.58-2.6,1.3-2.6S164.8,105.5,164.8,106.94Z" style="fill: rgb(38, 50, 56); transform-origin: 163.5px 106.94px;" id="elp5ljvnl7kn" class="animable"></path><path d="M179.1,109c0,1.44-.58,2.6-1.3,2.6s-1.3-1.16-1.3-2.6.58-2.6,1.3-2.6S179.1,107.58,179.1,109Z" style="fill: rgb(38, 50, 56); transform-origin: 177.8px 109px;" id="elmf274ypdbc" class="animable"></path><path d="M159.34,101.22s3.64-4.16,8.32,0" style="fill: none; stroke: rgb(38, 50, 56); stroke-linecap: round; stroke-linejoin: round; transform-origin: 163.5px 100.296px;" id="eli5l03gqlyep" class="animable"></path><path d="M176,103.3a4.33,4.33,0,0,1,5.46.26" style="fill: none; stroke: rgb(38, 50, 56); stroke-linecap: round; stroke-linejoin: round; transform-origin: 178.73px 103.007px;" id="el35m3h8h2ekp" class="animable"></path><path d="M137,96.8l48.36,5.2s-.52-24.44-.78-28.59-19.5-9.88-27-9.36-16.9,4.94-18.46,7S137,96.8,137,96.8Z" style="fill: rgb(95, 206, 214); stroke: rgb(38, 50, 56); stroke-linecap: round; stroke-linejoin: round; transform-origin: 161.18px 83.0085px;" id="elwwf4ll245yi" class="animable"></path><path d="M157.78,99.4l42.89,5.72s-11.43-9.88-20.53-10.66S157.78,99.4,157.78,99.4Z" style="fill: rgb(95, 206, 214); stroke: rgb(38, 50, 56); stroke-linecap: round; stroke-linejoin: round; transform-origin: 179.225px 99.7535px;" id="elm69dx0jbsu8" class="animable"></path><path d="M142.7,103.82s-1-8.06-5.46-8.06-2.34,6.5-1.82,10.66,5.46,5.2,7.28,3.64" style="fill: rgb(207, 207, 207); stroke: rgb(38, 50, 56); stroke-linecap: round; stroke-linejoin: round; transform-origin: 138.58px 103.254px;" id="el3993o3nm8oa" class="animable"></path><path d="M147.18,429.09l.62,9.74s2.75,2.06,10.79,2.17,11-3.5,11-3.5L171.2,427S156.29,434.06,147.18,429.09Z" style="fill: rgb(102, 102, 102); stroke: rgb(38, 50, 56); stroke-linecap: round; stroke-linejoin: round; transform-origin: 159.19px 434.001px;" id="eljo56wymyiph" class="animable"></path></g><defs>     <filter id="active" height="200%">         <feMorphology in="SourceAlpha" result="DILATED" operator="dilate" radius="2"></feMorphology>                <feFlood flood-color="#32DFEC" flood-opacity="1" result="PINK"></feFlood>        <feComposite in="PINK" in2="DILATED" operator="in" result="OUTLINE"></feComposite>        <feMerge>            <feMergeNode in="OUTLINE"></feMergeNode>            <feMergeNode in="SourceGraphic"></feMergeNode>        </feMerge>    </filter>    <filter id="hover" height="200%">        <feMorphology in="SourceAlpha" result="DILATED" operator="dilate" radius="2"></feMorphology>                <feFlood flood-color="#ff0000" flood-opacity="0.5" result="PINK"></feFlood>        <feComposite in="PINK" in2="DILATED" operator="in" result="OUTLINE"></feComposite>        <feMerge>            <feMergeNode in="OUTLINE"></feMergeNode>            <feMergeNode in="SourceGraphic"></feMergeNode>        </feMerge>            <feColorMatrix type="matrix" values="0   0   0   0   0                0   1   0   0   0                0   0   0   0   0                0   0   0   1   0 "></feColorMatrix>    </filter></defs><defs><clipPath id="freepik--clip-path--inject-12"><rect x="85.17" y="123" width="85.88" height="77.99" style="fill:#5FCED6"></rect></clipPath><clipPath id="freepik--clip-path-2--inject-12"><rect x="149.17" y="123" width="85.88" height="77.99" style="fill:#5FCED6"></rect></clipPath><clipPath id="freepik--clip-path-3--inject-12"><rect x="213.17" y="123" width="85.88" height="77.99" style="fill:#5FCED6"></rect></clipPath><clipPath id="freepik--clip-path-4--inject-12"><rect x="277.17" y="123" width="85.88" height="77.99" style="fill:#5FCED6"></rect></clipPath><clipPath id="freepik--clip-path-5--inject-12"><rect x="85.17" y="230" width="85.88" height="77.99" style="fill:#5FCED6"></rect></clipPath><clipPath id="freepik--clip-path-6--inject-12"><rect x="149.17" y="230" width="85.88" height="77.99" style="fill:#5FCED6"></rect></clipPath><clipPath id="freepik--clip-path-7--inject-12"><rect x="213.17" y="230" width="85.88" height="77.99" style="fill:#5FCED6"></rect></clipPath><clipPath id="freepik--clip-path-8--inject-12"><rect x="277.17" y="230" width="85.88" height="77.99" style="fill:#5FCED6"></rect></clipPath><clipPath id="freepik--clip-path-9--inject-12"><rect x="85.17" y="337" width="85.88" height="77.99" style="fill:#5FCED6"></rect></clipPath><clipPath id="freepik--clip-path-10--inject-12"><rect x="149.17" y="337" width="85.88" height="77.99" style="fill:#5FCED6"></rect></clipPath><clipPath id="freepik--clip-path-11--inject-12"><rect x="213.17" y="337" width="85.88" height="77.99" style="fill:#5FCED6"></rect></clipPath><clipPath id="freepik--clip-path-12--inject-12"><rect x="277.17" y="337" width="85.88" height="77.99" style="fill:#5FCED6"></rect></clipPath><clipPath id="freepik--clip-path-13--inject-12"><rect x="242.71" y="183.05" width="102.02" height="92.64" style="fill:#5FCED6;stroke:#263238;stroke-linecap:round;stroke-linejoin:round"></rect></clipPath><clipPath id="freepik--clip-path-14--inject-12"><rect x="181.35" y="367.69" width="102.02" height="92.64" style="fill:#5FCED6;stroke:#263238;stroke-linecap:round;stroke-linejoin:round"></rect></clipPath><clipPath id="freepik--clip-path-15--inject-12"><rect x="256.37" y="367.69" width="102.02" height="92.64" style="fill:#5FCED6;stroke:#263238;stroke-linecap:round;stroke-linejoin:round"></rect></clipPath><clipPath id="freepik--clip-path-16--inject-12"><rect x="332.37" y="367.69" width="102.02" height="92.64" style="fill:#5FCED6;stroke:#263238;stroke-linecap:round;stroke-linejoin:round"></rect></clipPath><clipPath id="freepik--clip-path-17--inject-12"><rect x="216.53" y="275.3" width="102.02" height="92.64" style="fill:#5FCED6;stroke:#263238;stroke-linecap:round;stroke-linejoin:round"></rect></clipPath><clipPath id="freepik--clip-path-18--inject-12"><rect x="297.53" y="275.3" width="102.02" height="92.64" style="fill:#5FCED6;stroke:#263238;stroke-linecap:round;stroke-linejoin:round"></rect></clipPath></defs></svg>